G04*
G04 #@! TF.GenerationSoftware,Altium Limited,Altium Designer,23.1.1 (15)*
G04*
G04 Layer_Color=16711935*
%FSLAX42Y42*%
%MOMM*%
G71*
G04*
G04 #@! TF.SameCoordinates,F7E502E2-2775-4CE4-A648-0EBC044B2D6D*
G04*
G04*
G04 #@! TF.FilePolarity,Negative*
G04*
G01*
G75*
%ADD52C,1.73*%
%ADD53C,2.15*%
G04:AMPARAMS|DCode=54|XSize=2.15mm|YSize=2.15mm|CornerRadius=0.59mm|HoleSize=0mm|Usage=FLASHONLY|Rotation=270.000|XOffset=0mm|YOffset=0mm|HoleType=Round|Shape=RoundedRectangle|*
%AMROUNDEDRECTD54*
21,1,2.15,0.98,0,0,270.0*
21,1,0.98,2.15,0,0,270.0*
1,1,1.18,-0.49,-0.49*
1,1,1.18,-0.49,0.49*
1,1,1.18,0.49,0.49*
1,1,1.18,0.49,-0.49*
%
%ADD54ROUNDEDRECTD54*%
%ADD55C,2.15*%
%ADD56R,2.15X2.15*%
%ADD57C,1.07*%
D52*
X200Y200D02*
D03*
X450Y5675D02*
D03*
X6975Y375D02*
D03*
X7075Y5700D02*
D03*
D53*
X3645Y525D02*
D03*
Y875D02*
D03*
X6660Y4256D02*
D03*
Y4606D02*
D03*
Y906D02*
D03*
Y1256D02*
D03*
Y2926D02*
D03*
Y2576D02*
D03*
X2737Y4668D02*
D03*
D54*
X3645Y1225D02*
D03*
X6660Y4956D02*
D03*
Y1606D02*
D03*
Y3276D02*
D03*
X2737Y5018D02*
D03*
D55*
X4082Y1925D02*
D03*
Y2179D02*
D03*
Y2687D02*
D03*
Y3188D02*
D03*
Y3696D02*
D03*
Y3950D02*
D03*
X2047Y1925D02*
D03*
Y2306D02*
D03*
Y3569D02*
D03*
D56*
Y3950D02*
D03*
D57*
X1144Y3754D02*
D03*
X1108Y4699D02*
D03*
X874Y3343D02*
D03*
X397Y3750D02*
D03*
M02*
