G04*
G04 #@! TF.GenerationSoftware,Altium Limited,Altium Designer,23.1.1 (15)*
G04*
G04 Layer_Color=0*
%FSLAX42Y42*%
%MOMM*%
G71*
G04*
G04 #@! TF.SameCoordinates,F7E502E2-2775-4CE4-A648-0EBC044B2D6D*
G04*
G04*
G04 #@! TF.FilePolarity,Positive*
G04*
G01*
G75*
%ADD14C,0.10*%
%ADD72C,0.05*%
D14*
X1287Y3573D02*
X1387D01*
X1337Y3523D02*
Y3623D01*
X5530Y1481D02*
Y1581D01*
X5480Y1531D02*
X5580D01*
X4730Y1551D02*
X4830D01*
X4780Y1501D02*
Y1601D01*
X5912Y1565D02*
X5948D01*
X5930Y1547D02*
Y1583D01*
X5480Y1021D02*
X5580D01*
X5530Y971D02*
Y1071D01*
X5912Y970D02*
X5948D01*
X5930Y952D02*
Y988D01*
X4730Y1016D02*
X4830D01*
X4780Y966D02*
Y1066D01*
X1225Y1181D02*
X1325D01*
X1275Y1131D02*
Y1231D01*
X2017Y594D02*
Y694D01*
X1967Y644D02*
X2067D01*
X1965Y1156D02*
X2065D01*
X2015Y1106D02*
Y1206D01*
X2502Y595D02*
Y695D01*
X2452Y645D02*
X2552D01*
X2452Y1156D02*
X2552D01*
X2502Y1106D02*
Y1206D01*
X1225Y641D02*
X1325D01*
X1275Y591D02*
Y691D01*
X2887Y595D02*
X2923D01*
X2905Y577D02*
Y613D01*
X2897Y1201D02*
X2933D01*
X2915Y1183D02*
Y1219D01*
X1219Y4077D02*
X1319D01*
X1269Y4027D02*
Y4127D01*
X1327Y5033D02*
Y5133D01*
X1277Y5083D02*
X1377D01*
X607Y3987D02*
X707D01*
X657Y3937D02*
Y4037D01*
X5930Y3214D02*
Y3250D01*
X5912Y3232D02*
X5948D01*
X5930Y2622D02*
Y2658D01*
X5912Y2640D02*
X5948D01*
X5930Y4879D02*
Y4915D01*
X5912Y4897D02*
X5948D01*
X5930Y4267D02*
Y4303D01*
X5912Y4285D02*
X5948D01*
X1369Y4783D02*
X1405D01*
X1387Y4765D02*
Y4801D01*
X877Y3293D02*
Y3393D01*
X827Y3343D02*
X927D01*
X1867Y4643D02*
X1967D01*
X1917Y4593D02*
Y4693D01*
X4730Y2666D02*
X4830D01*
X4780Y2616D02*
Y2716D01*
X5480Y3181D02*
X5580D01*
X5530Y3131D02*
Y3231D01*
X5480Y2671D02*
X5580D01*
X5530Y2621D02*
Y2721D01*
X4780Y4276D02*
Y4376D01*
X4730Y4326D02*
X4830D01*
X5480Y4846D02*
X5580D01*
X5530Y4796D02*
Y4896D01*
X5480Y4336D02*
X5580D01*
X5530Y4286D02*
Y4386D01*
X4730Y3203D02*
X4830D01*
X4780Y3153D02*
Y3253D01*
X877Y3053D02*
Y3153D01*
X827Y3103D02*
X927D01*
X676Y4272D02*
X776D01*
X726Y4222D02*
Y4322D01*
X4780Y4818D02*
Y4918D01*
X4730Y4868D02*
X4830D01*
X1917Y5033D02*
Y5133D01*
X1867Y5083D02*
X1967D01*
D72*
X3675Y825D02*
Y925D01*
X3625Y875D02*
X3725D01*
X6690Y4556D02*
Y4656D01*
X6640Y4606D02*
X6740D01*
X6690Y1206D02*
Y1306D01*
X6640Y1256D02*
X6740D01*
X6640Y2926D02*
X6740D01*
X6690Y2876D02*
Y2976D01*
X2717Y4843D02*
X2817D01*
X2767Y4793D02*
Y4893D01*
M02*
