G04*
G04 #@! TF.GenerationSoftware,Altium Limited,Altium Designer,23.1.1 (15)*
G04*
G04 Layer_Color=32768*
%FSLAX42Y42*%
%MOMM*%
G71*
G04*
G04 #@! TF.SameCoordinates,F7E502E2-2775-4CE4-A648-0EBC044B2D6D*
G04*
G04*
G04 #@! TF.FilePolarity,Positive*
G04*
G01*
G75*
%ADD12C,0.20*%
%ADD14C,0.10*%
%ADD72C,0.05*%
D12*
X1222Y3628D02*
X1452D01*
Y3518D02*
Y3628D01*
X1222Y3518D02*
X1452D01*
X1222D02*
Y3628D01*
X5690Y1296D02*
Y1766D01*
X5370Y1296D02*
X5690D01*
X5370D02*
Y1766D01*
X5690D01*
X4674Y1766D02*
X4887D01*
X4674Y1336D02*
Y1766D01*
Y1336D02*
X4887D01*
Y1766D01*
X5990Y1445D02*
Y1685D01*
X5870Y1445D02*
X5990D01*
X5870D02*
Y1685D01*
X5990D01*
X5370Y1256D02*
X5690D01*
X5370Y786D02*
Y1256D01*
Y786D02*
X5690D01*
Y1256D01*
X5990Y850D02*
Y1090D01*
X5870Y850D02*
X5990D01*
X5870D02*
Y1090D01*
X5990D01*
X4635Y1246D02*
X4925D01*
X4635Y786D02*
Y1246D01*
Y786D02*
X4925D01*
Y1246D01*
X1169Y1396D02*
X1382D01*
X1169Y966D02*
Y1396D01*
Y966D02*
X1382D01*
Y1396D01*
X2177Y409D02*
Y880D01*
X1856Y409D02*
X2177D01*
X1856D02*
Y880D01*
X2177D01*
X1855Y1391D02*
X2175D01*
X1855Y921D02*
Y1391D01*
Y921D02*
X2175D01*
Y1391D01*
X2662Y410D02*
Y880D01*
X2341Y410D02*
X2662D01*
X2341D02*
Y880D01*
X2662D01*
X2342Y1391D02*
X2663D01*
X2342Y921D02*
Y1391D01*
Y921D02*
X2663D01*
Y1391D01*
X1130Y871D02*
X1420D01*
X1130Y411D02*
Y871D01*
Y411D02*
X1420D01*
Y871D01*
X2965Y475D02*
Y715D01*
X2845Y475D02*
X2965D01*
X2845D02*
Y715D01*
X2965D01*
X2975Y1081D02*
Y1321D01*
X2855Y1081D02*
X2975D01*
X2855D02*
Y1321D01*
X2975D01*
X1044Y4338D02*
X1494D01*
X1044Y3816D02*
Y4338D01*
Y3816D02*
X1494D01*
Y4338D01*
X1097Y4938D02*
Y5228D01*
Y4938D02*
X1557D01*
Y5228D01*
X1097D02*
X1557D01*
X602Y4102D02*
X712D01*
X602Y3872D02*
Y4102D01*
Y3872D02*
X712D01*
Y4102D01*
X5870Y3352D02*
X5990D01*
X5870Y3112D02*
Y3352D01*
Y3112D02*
X5990D01*
Y3352D01*
X5870Y2760D02*
X5990D01*
X5870Y2520D02*
Y2760D01*
Y2520D02*
X5990D01*
Y2760D01*
X5870Y5017D02*
X5990D01*
X5870Y4777D02*
Y5017D01*
Y4777D02*
X5990D01*
Y5017D01*
X5870Y4405D02*
X5990D01*
X5870Y4165D02*
Y4405D01*
Y4165D02*
X5990D01*
Y4405D01*
X1267Y4723D02*
Y4843D01*
Y4723D02*
X1507D01*
Y4843D01*
X1267D02*
X1507D01*
X1037Y3265D02*
Y3420D01*
X717D02*
X1037D01*
X717Y3265D02*
Y3420D01*
Y3265D02*
X1037D01*
X1682Y4482D02*
X2153D01*
X1682D02*
Y4803D01*
X2153D01*
Y4482D02*
Y4803D01*
X4635Y2896D02*
X4925D01*
X4635Y2436D02*
Y2896D01*
Y2436D02*
X4925D01*
Y2896D01*
X5370Y3416D02*
X5690D01*
X5370Y2946D02*
Y3416D01*
Y2946D02*
X5690D01*
Y3416D01*
X5370Y2906D02*
X5690D01*
X5370Y2436D02*
Y2906D01*
Y2436D02*
X5690D01*
Y2906D01*
X4925Y4096D02*
Y4556D01*
X4635Y4096D02*
X4925D01*
X4635D02*
Y4556D01*
X4925D01*
X5370Y5081D02*
X5690D01*
X5370Y4611D02*
Y5081D01*
Y4611D02*
X5690D01*
Y5081D01*
X5370Y4571D02*
X5690D01*
X5370Y4101D02*
Y4571D01*
Y4101D02*
X5690D01*
Y4571D01*
X4674Y3418D02*
X4887D01*
X4674Y2988D02*
Y3418D01*
Y2988D02*
X4887D01*
Y3418D01*
X992Y3048D02*
Y3158D01*
X762D02*
X992D01*
X762Y3048D02*
Y3158D01*
Y3048D02*
X992D01*
X611Y4217D02*
X841D01*
X611D02*
Y4327D01*
X841D01*
Y4217D02*
Y4327D01*
X4887Y4653D02*
Y5083D01*
X4674Y4653D02*
X4887D01*
X4674D02*
Y5083D01*
X4887D01*
X2153Y4922D02*
Y5243D01*
X1682D02*
X2153D01*
X1682Y4922D02*
Y5243D01*
Y4922D02*
X2153D01*
D14*
X1287Y3293D02*
Y3393D01*
X1237Y3343D02*
X1337D01*
X5080Y1553D02*
X5180D01*
X5130Y1503D02*
Y1603D01*
Y946D02*
Y1046D01*
X5080Y996D02*
X5180D01*
X1575Y1181D02*
X1675D01*
X1625Y1131D02*
Y1231D01*
X1575Y618D02*
X1675D01*
X1625Y568D02*
Y668D01*
X857Y5058D02*
X957D01*
X907Y5008D02*
Y5108D01*
X396Y3925D02*
Y4025D01*
X346Y3975D02*
X446D01*
X5080Y4871D02*
X5180D01*
X5130Y4821D02*
Y4921D01*
X5080Y4308D02*
X5180D01*
X5130Y4258D02*
Y4358D01*
X5080Y3206D02*
X5180D01*
X5130Y3156D02*
Y3256D01*
X5080Y2643D02*
X5180D01*
X5130Y2593D02*
Y2693D01*
X637Y3543D02*
X732D01*
X685Y3495D02*
Y3590D01*
X1162Y3103D02*
X1262D01*
X1212Y3053D02*
Y3153D01*
X642Y4713D02*
X732D01*
X687Y4668D02*
Y4758D01*
X1017Y4735D02*
Y4830D01*
X970Y4783D02*
X1065D01*
D72*
X4065Y330D02*
Y1460D01*
X3285Y330D02*
X4065D01*
X3285D02*
Y1460D01*
X4065D01*
X1117Y3448D02*
X1457D01*
X1117Y3238D02*
X1457D01*
X1117D02*
Y3448D01*
X1457Y3238D02*
Y3448D01*
X7080Y4061D02*
Y5191D01*
X6300Y4061D02*
X7080D01*
X6300D02*
Y5191D01*
X7080D01*
Y711D02*
Y1841D01*
X6300Y711D02*
X7080D01*
X6300D02*
Y1841D01*
X7080D01*
X5218Y1333D02*
Y1773D01*
X5043D02*
X5218D01*
X5043Y1333D02*
X5218D01*
X5043D02*
Y1773D01*
X5000Y1211D02*
X5260D01*
X5000Y781D02*
X5260D01*
Y1211D01*
X5000Y781D02*
Y1211D01*
X1713Y961D02*
Y1401D01*
X1538D02*
X1713D01*
X1538Y961D02*
X1713D01*
X1538D02*
Y1401D01*
X1495Y403D02*
Y833D01*
X1755Y403D02*
Y833D01*
X1495Y403D02*
X1755D01*
X1495Y833D02*
X1755D01*
X802Y4888D02*
Y5228D01*
X1012Y4888D02*
Y5228D01*
X802Y4888D02*
X1012D01*
X802Y5228D02*
X1012D01*
X291Y3805D02*
X501D01*
X291Y4145D02*
X501D01*
X291Y3805D02*
Y4145D01*
X501Y3805D02*
Y4145D01*
X6300Y3511D02*
X7080D01*
X6300Y2381D02*
Y3511D01*
Y2381D02*
X7080D01*
Y3511D01*
X5218Y4651D02*
Y5091D01*
X5043D02*
X5218D01*
X5043Y4651D02*
X5218D01*
X5043D02*
Y5091D01*
X5000Y4093D02*
Y4523D01*
X5260Y4093D02*
Y4523D01*
X5000Y4093D02*
X5260D01*
X5000Y4523D02*
X5260D01*
X5218Y2986D02*
Y3426D01*
X5043D02*
X5218D01*
X5043Y2986D02*
X5218D01*
X5043D02*
Y3426D01*
X5000Y2428D02*
Y2858D01*
X5260Y2428D02*
Y2858D01*
X5000Y2428D02*
X5260D01*
X5000Y2858D02*
X5260D01*
X820Y3468D02*
Y3618D01*
X550Y3468D02*
Y3618D01*
Y3468D02*
X820D01*
X550Y3618D02*
X820D01*
X3157Y4473D02*
Y5253D01*
X2377Y4473D02*
X3157D01*
X2377D02*
Y5253D01*
X3157D01*
X1077Y3028D02*
Y3178D01*
X1347Y3028D02*
Y3178D01*
X1077D02*
X1347D01*
X1077Y3028D02*
X1347D01*
X617Y4583D02*
Y4843D01*
X757Y4583D02*
Y4843D01*
X617Y4583D02*
X757D01*
X617Y4843D02*
X757D01*
X912Y4723D02*
X1122D01*
X912Y4843D02*
X1122D01*
Y4723D02*
Y4843D01*
X912Y4723D02*
Y4843D01*
M02*
