G04*
G04 #@! TF.GenerationSoftware,Altium Limited,Altium Designer,23.1.1 (15)*
G04*
G04 Layer_Color=32768*
%FSLAX42Y42*%
%MOMM*%
G71*
G04*
G04 #@! TF.SameCoordinates,F7E502E2-2775-4CE4-A648-0EBC044B2D6D*
G04*
G04*
G04 #@! TF.FilePolarity,Positive*
G04*
G01*
G75*
%ADD71C,0.15*%
D71*
X3750Y975D02*
Y1025D01*
Y1000D01*
X3625D01*
X3600Y1025D01*
Y1050D01*
X3625Y1075D01*
X3750Y925D02*
X3600D01*
Y850D01*
X3625Y825D01*
X3650D01*
X3675Y850D01*
Y925D01*
Y850D01*
X3700Y825D01*
X3725D01*
X3750Y850D01*
Y925D01*
Y775D02*
Y675D01*
Y725D01*
X3600D01*
X6765Y4706D02*
Y4756D01*
Y4731D01*
X6640D01*
X6615Y4756D01*
Y4781D01*
X6640Y4806D01*
X6765Y4656D02*
X6640D01*
X6615Y4631D01*
Y4581D01*
X6640Y4556D01*
X6765D01*
Y4506D02*
Y4406D01*
Y4456D01*
X6615D01*
X6765Y1356D02*
Y1406D01*
Y1381D01*
X6640D01*
X6615Y1406D01*
Y1431D01*
X6640Y1456D01*
X6765Y1306D02*
X6615D01*
X6665Y1256D01*
X6615Y1206D01*
X6765D01*
Y1156D02*
Y1056D01*
Y1106D01*
X6615D01*
X6765Y3026D02*
Y3076D01*
Y3051D01*
X6640D01*
X6615Y3076D01*
Y3101D01*
X6640Y3126D01*
X6765Y2976D02*
X6665D01*
X6615Y2926D01*
X6665Y2876D01*
X6765D01*
Y2826D02*
Y2726D01*
Y2776D01*
X6615D01*
X2842Y4868D02*
Y4918D01*
Y4893D01*
X2717D01*
X2692Y4918D01*
Y4943D01*
X2717Y4968D01*
X2842Y4818D02*
Y4718D01*
Y4768D01*
X2692D01*
M02*
