G04*
G04 #@! TF.GenerationSoftware,Altium Limited,Altium Designer,23.1.1 (15)*
G04*
G04 Layer_Color=2752767*
%FSLAX42Y42*%
%MOMM*%
G71*
G04*
G04 #@! TF.SameCoordinates,F7E502E2-2775-4CE4-A648-0EBC044B2D6D*
G04*
G04*
G04 #@! TF.FilePolarity,Positive*
G04*
G01*
G75*
%ADD13C,0.13*%
%ADD73C,0.17*%
D13*
X175Y175D02*
Y149D01*
X225D01*
Y175D01*
X251D01*
Y225D01*
X225D01*
Y251D01*
X175D01*
Y225D01*
X149D01*
Y175D01*
X175D01*
X425Y5650D02*
Y5624D01*
X475D01*
Y5650D01*
X501D01*
Y5700D01*
X475D01*
Y5726D01*
X425D01*
Y5700D01*
X399D01*
Y5650D01*
X425D01*
X6950Y350D02*
Y324D01*
X7000D01*
Y350D01*
X7026D01*
Y400D01*
X7000D01*
Y426D01*
X6950D01*
Y400D01*
X6924D01*
Y350D01*
X6950D01*
X7050Y5675D02*
Y5649D01*
X7100D01*
Y5675D01*
X7126D01*
Y5725D01*
X7100D01*
Y5751D01*
X7050D01*
Y5725D01*
X7024D01*
Y5675D01*
X7050D01*
X4031Y1874D02*
Y1976D01*
X4133D01*
Y1874D01*
X4031D01*
Y2128D02*
Y2230D01*
X4133D01*
Y2128D01*
X4031D01*
Y2636D02*
Y2738D01*
X4133D01*
Y2636D01*
X4031D01*
Y3137D02*
Y3238D01*
X4133D01*
Y3137D01*
X4031D01*
Y3645D02*
Y3746D01*
X4133D01*
Y3645D01*
X4031D01*
Y3899D02*
Y4000D01*
X4133D01*
Y3899D01*
X4031D01*
X1997Y1874D02*
Y1976D01*
X2098D01*
Y1874D01*
X1997D01*
Y2255D02*
Y2357D01*
X2098D01*
Y2255D01*
X1997D01*
Y3518D02*
Y3619D01*
X2098D01*
Y3518D01*
X1997D01*
Y3899D02*
Y4000D01*
X2098D01*
Y3899D01*
X1997D01*
X1144Y3703D02*
X1093Y3805D01*
X1195D01*
X1144Y3703D01*
X1108Y4648D02*
X1057Y4750D01*
X1158D01*
X1108Y4648D01*
X874Y3292D02*
X823Y3393D01*
X925D01*
X874Y3292D01*
X397Y3699D02*
X347Y3801D01*
X448D01*
X397Y3699D01*
D73*
X3696Y525D02*
G03*
X3696Y525I-51J0D01*
G01*
Y1225D02*
G03*
X3696Y1225I-51J0D01*
G01*
Y875D02*
G03*
X3696Y875I-51J0D01*
G01*
X6711Y4256D02*
G03*
X6711Y4256I-51J0D01*
G01*
Y4956D02*
G03*
X6711Y4956I-51J0D01*
G01*
Y4606D02*
G03*
X6711Y4606I-51J0D01*
G01*
Y906D02*
G03*
X6711Y906I-51J0D01*
G01*
Y1606D02*
G03*
X6711Y1606I-51J0D01*
G01*
Y1256D02*
G03*
X6711Y1256I-51J0D01*
G01*
Y2926D02*
G03*
X6711Y2926I-51J0D01*
G01*
Y3276D02*
G03*
X6711Y3276I-51J0D01*
G01*
Y2576D02*
G03*
X6711Y2576I-51J0D01*
G01*
X2788Y5018D02*
G03*
X2788Y5018I-51J0D01*
G01*
Y4668D02*
G03*
X2788Y4668I-51J0D01*
G01*
M02*
