G04*
G04 #@! TF.GenerationSoftware,Altium Limited,Altium Designer,23.1.1 (15)*
G04*
G04 Layer_Physical_Order=2*
G04 Layer_Color=16711680*
%FSLAX42Y42*%
%MOMM*%
G71*
G04*
G04 #@! TF.SameCoordinates,F7E502E2-2775-4CE4-A648-0EBC044B2D6D*
G04*
G04*
G04 #@! TF.FilePolarity,Positive*
G04*
G01*
G75*
%ADD11C,0.25*%
%ADD15C,0.50*%
%ADD59C,1.50*%
%ADD60C,1.10*%
%ADD63C,1.00*%
%ADD65C,1.52*%
%ADD66C,1.95*%
G04:AMPARAMS|DCode=67|XSize=1.95mm|YSize=1.95mm|CornerRadius=0.49mm|HoleSize=0mm|Usage=FLASHONLY|Rotation=270.000|XOffset=0mm|YOffset=0mm|HoleType=Round|Shape=RoundedRectangle|*
%AMROUNDEDRECTD67*
21,1,1.95,0.98,0,0,270.0*
21,1,0.98,1.95,0,0,270.0*
1,1,0.98,-0.49,-0.49*
1,1,0.98,-0.49,0.49*
1,1,0.98,0.49,0.49*
1,1,0.98,0.49,-0.49*
%
%ADD67ROUNDEDRECTD67*%
%ADD68C,1.94*%
%ADD69R,1.94X1.94*%
%ADD70C,0.86*%
G36*
X4100Y300D02*
X850D01*
Y1500D01*
X4100D01*
Y300D01*
D02*
G37*
G36*
X3200Y2800D02*
X250D01*
Y5500D01*
X3200D01*
Y2800D01*
D02*
G37*
G36*
X7100Y700D02*
X4300D01*
Y1850D01*
X7100D01*
Y700D01*
D02*
G37*
G36*
Y2350D02*
X4300D01*
Y3500D01*
X7100D01*
Y2350D01*
D02*
G37*
G36*
Y4050D02*
X4300D01*
Y5200D01*
X7100D01*
Y4050D01*
D02*
G37*
%LPC*%
G36*
X3694Y1341D02*
X3596D01*
X3579Y1339D01*
X3563Y1332D01*
X3549Y1321D01*
X3538Y1307D01*
X3531Y1291D01*
X3529Y1274D01*
Y1176D01*
X3531Y1159D01*
X3538Y1143D01*
X3549Y1129D01*
X3563Y1118D01*
X3579Y1111D01*
X3596Y1109D01*
X3694D01*
X3711Y1111D01*
X3727Y1118D01*
X3741Y1129D01*
X3752Y1143D01*
X3759Y1159D01*
X3761Y1176D01*
Y1274D01*
X3759Y1291D01*
X3752Y1307D01*
X3741Y1321D01*
X3727Y1332D01*
X3711Y1339D01*
X3694Y1341D01*
D02*
G37*
G36*
X3660Y991D02*
X3630D01*
X3600Y983D01*
X3574Y967D01*
X3553Y946D01*
X3537Y920D01*
X3530Y890D01*
Y860D01*
X3537Y830D01*
X3553Y804D01*
X3574Y783D01*
X3600Y767D01*
X3630Y760D01*
X3660D01*
X3690Y767D01*
X3716Y783D01*
X3737Y804D01*
X3753Y830D01*
X3761Y860D01*
Y890D01*
X3753Y920D01*
X3737Y946D01*
X3716Y967D01*
X3690Y983D01*
X3660Y991D01*
D02*
G37*
G36*
X3661Y648D02*
X3658D01*
Y538D01*
X3768D01*
Y541D01*
X3760Y572D01*
X3743Y600D01*
X3720Y623D01*
X3692Y640D01*
X3661Y648D01*
D02*
G37*
G36*
X3632D02*
X3629D01*
X3598Y640D01*
X3570Y623D01*
X3547Y600D01*
X3530Y572D01*
X3522Y541D01*
Y538D01*
X3632D01*
Y648D01*
D02*
G37*
G36*
X3768Y512D02*
X3658D01*
Y402D01*
X3661D01*
X3692Y410D01*
X3720Y427D01*
X3743Y450D01*
X3760Y478D01*
X3768Y509D01*
Y512D01*
D02*
G37*
G36*
X3632D02*
X3522D01*
Y509D01*
X3530Y478D01*
X3547Y450D01*
X3570Y427D01*
X3598Y410D01*
X3629Y402D01*
X3632D01*
Y512D01*
D02*
G37*
G36*
X2786Y5134D02*
X2689D01*
X2671Y5131D01*
X2655Y5125D01*
X2641Y5114D01*
X2630Y5100D01*
X2624Y5084D01*
X2621Y5066D01*
Y4969D01*
X2624Y4952D01*
X2630Y4935D01*
X2641Y4921D01*
X2655Y4911D01*
X2671Y4904D01*
X2689Y4902D01*
X2786D01*
X2804Y4904D01*
X2820Y4911D01*
X2834Y4921D01*
X2845Y4935D01*
X2851Y4952D01*
X2854Y4969D01*
Y5066D01*
X2851Y5084D01*
X2845Y5100D01*
X2834Y5114D01*
X2820Y5125D01*
X2804Y5131D01*
X2786Y5134D01*
D02*
G37*
G36*
X2725Y4791D02*
X2721D01*
X2690Y4782D01*
X2662Y4766D01*
X2639Y4743D01*
X2638Y4741D01*
X1162D01*
X1150Y4754D01*
X1134Y4763D01*
X1120Y4766D01*
Y4699D01*
X1108D01*
Y4686D01*
X1040D01*
X1044Y4672D01*
X1053Y4657D01*
X1065Y4644D01*
X1081Y4635D01*
X1085Y4634D01*
X1087Y4631D01*
X1098Y4616D01*
X1114Y4604D01*
X1131Y4597D01*
X1150Y4594D01*
X2638D01*
X2639Y4592D01*
X2662Y4569D01*
X2690Y4553D01*
X2721Y4545D01*
X2725D01*
Y4668D01*
Y4791D01*
D02*
G37*
G36*
X1095Y4766D02*
X1081Y4763D01*
X1065Y4754D01*
X1053Y4741D01*
X1044Y4725D01*
X1040Y4712D01*
X1095D01*
Y4766D01*
D02*
G37*
G36*
X2754Y4791D02*
X2750D01*
Y4680D01*
X2860D01*
Y4684D01*
X2852Y4715D01*
X2836Y4743D01*
X2813Y4766D01*
X2785Y4782D01*
X2754Y4791D01*
D02*
G37*
G36*
X2860Y4655D02*
X2750D01*
Y4545D01*
X2754D01*
X2785Y4553D01*
X2813Y4569D01*
X2836Y4592D01*
X2852Y4620D01*
X2860Y4651D01*
Y4655D01*
D02*
G37*
G36*
X2163Y4065D02*
X1932D01*
Y4043D01*
X1636D01*
X1611Y4040D01*
X1589Y4031D01*
X1569Y4016D01*
X1554Y3997D01*
X1545Y3974D01*
X1542Y3953D01*
X1011Y3422D01*
X928D01*
X910Y3420D01*
X893Y3413D01*
X882Y3404D01*
X862D01*
X839Y3395D01*
X822Y3377D01*
X813Y3355D01*
Y3331D01*
X822Y3308D01*
X839Y3291D01*
X862Y3281D01*
X886D01*
X905Y3289D01*
X910Y3287D01*
X928Y3285D01*
X1039D01*
X1057Y3287D01*
X1074Y3294D01*
X1088Y3305D01*
X1639Y3856D01*
X1932D01*
Y3835D01*
X2163D01*
Y4065D01*
D02*
G37*
G36*
X1156Y3815D02*
X1132D01*
X1109Y3806D01*
X1104Y3801D01*
X433D01*
X432Y3802D01*
X410Y3811D01*
X385D01*
X363Y3802D01*
X346Y3785D01*
X336Y3762D01*
Y3738D01*
X346Y3716D01*
X363Y3698D01*
X385Y3689D01*
X410D01*
X432Y3698D01*
X447Y3713D01*
X1098D01*
X1109Y3702D01*
X1132Y3693D01*
X1156D01*
X1179Y3702D01*
X1196Y3719D01*
X1205Y3742D01*
Y3766D01*
X1196Y3789D01*
X1179Y3806D01*
X1156Y3815D01*
D02*
G37*
G36*
X2063Y3684D02*
X2032D01*
X2003Y3676D01*
X1977Y3661D01*
X1955Y3639D01*
X1940Y3613D01*
X1932Y3584D01*
Y3554D01*
X1940Y3524D01*
X1955Y3498D01*
X1977Y3477D01*
X2003Y3461D01*
X2032Y3454D01*
X2063D01*
X2092Y3461D01*
X2118Y3477D01*
X2140Y3498D01*
X2155Y3524D01*
X2163Y3554D01*
Y3584D01*
X2155Y3613D01*
X2140Y3639D01*
X2118Y3661D01*
X2092Y3676D01*
X2063Y3684D01*
D02*
G37*
G36*
X6709Y1722D02*
X6611D01*
X6594Y1720D01*
X6578Y1713D01*
X6564Y1702D01*
X6553Y1688D01*
X6546Y1672D01*
X6544Y1655D01*
Y1557D01*
X6546Y1540D01*
X6553Y1523D01*
X6564Y1510D01*
X6578Y1499D01*
X6594Y1492D01*
X6611Y1490D01*
X6709D01*
X6726Y1492D01*
X6743Y1499D01*
X6757Y1510D01*
X6767Y1523D01*
X6774Y1540D01*
X6776Y1557D01*
Y1655D01*
X6774Y1672D01*
X6767Y1688D01*
X6757Y1702D01*
X6743Y1713D01*
X6726Y1720D01*
X6709Y1722D01*
D02*
G37*
G36*
X6675Y1371D02*
X6645D01*
X6616Y1364D01*
X6589Y1348D01*
X6568Y1327D01*
X6553Y1300D01*
X6545Y1271D01*
Y1241D01*
X6553Y1211D01*
X6568Y1185D01*
X6589Y1163D01*
X6616Y1148D01*
X6645Y1140D01*
X6675D01*
X6705Y1148D01*
X6731Y1163D01*
X6753Y1185D01*
X6768Y1211D01*
X6776Y1241D01*
Y1271D01*
X6768Y1300D01*
X6753Y1327D01*
X6731Y1348D01*
X6705Y1364D01*
X6675Y1371D01*
D02*
G37*
G36*
X6676Y1029D02*
X6673D01*
Y919D01*
X6783D01*
Y922D01*
X6775Y953D01*
X6759Y981D01*
X6736Y1004D01*
X6708Y1020D01*
X6676Y1029D01*
D02*
G37*
G36*
X6647D02*
X6644D01*
X6613Y1020D01*
X6585Y1004D01*
X6562Y981D01*
X6546Y953D01*
X6537Y922D01*
Y919D01*
X6647D01*
Y1029D01*
D02*
G37*
G36*
X6783Y893D02*
X6673D01*
Y783D01*
X6676D01*
X6708Y791D01*
X6736Y808D01*
X6759Y830D01*
X6775Y858D01*
X6783Y890D01*
Y893D01*
D02*
G37*
G36*
X6647D02*
X6537D01*
Y890D01*
X6546Y858D01*
X6562Y830D01*
X6585Y808D01*
X6613Y791D01*
X6644Y783D01*
X6647D01*
Y893D01*
D02*
G37*
G36*
X6709Y3392D02*
X6611D01*
X6594Y3390D01*
X6578Y3383D01*
X6564Y3372D01*
X6553Y3358D01*
X6546Y3342D01*
X6544Y3325D01*
Y3227D01*
X6546Y3210D01*
X6553Y3193D01*
X6564Y3180D01*
X6578Y3169D01*
X6594Y3162D01*
X6611Y3160D01*
X6709D01*
X6726Y3162D01*
X6743Y3169D01*
X6757Y3180D01*
X6767Y3193D01*
X6774Y3210D01*
X6776Y3227D01*
Y3325D01*
X6774Y3342D01*
X6767Y3358D01*
X6757Y3372D01*
X6743Y3383D01*
X6726Y3390D01*
X6709Y3392D01*
D02*
G37*
G36*
X6675Y3041D02*
X6645D01*
X6616Y3034D01*
X6589Y3018D01*
X6568Y2997D01*
X6553Y2970D01*
X6545Y2941D01*
Y2911D01*
X6553Y2881D01*
X6568Y2855D01*
X6589Y2833D01*
X6616Y2818D01*
X6645Y2810D01*
X6675D01*
X6705Y2818D01*
X6731Y2833D01*
X6753Y2855D01*
X6768Y2881D01*
X6776Y2911D01*
Y2941D01*
X6768Y2970D01*
X6753Y2997D01*
X6731Y3018D01*
X6705Y3034D01*
X6675Y3041D01*
D02*
G37*
G36*
X6676Y2699D02*
X6673D01*
Y2589D01*
X6783D01*
Y2592D01*
X6775Y2623D01*
X6759Y2651D01*
X6736Y2674D01*
X6708Y2690D01*
X6676Y2699D01*
D02*
G37*
G36*
X6647D02*
X6644D01*
X6613Y2690D01*
X6585Y2674D01*
X6562Y2651D01*
X6546Y2623D01*
X6537Y2592D01*
Y2589D01*
X6647D01*
Y2699D01*
D02*
G37*
G36*
X6783Y2563D02*
X6673D01*
Y2453D01*
X6676D01*
X6708Y2461D01*
X6736Y2478D01*
X6759Y2500D01*
X6775Y2528D01*
X6783Y2560D01*
Y2563D01*
D02*
G37*
G36*
X6647D02*
X6537D01*
Y2560D01*
X6546Y2528D01*
X6562Y2500D01*
X6585Y2478D01*
X6613Y2461D01*
X6644Y2453D01*
X6647D01*
Y2563D01*
D02*
G37*
G36*
X6709Y5072D02*
X6611D01*
X6594Y5070D01*
X6578Y5063D01*
X6564Y5052D01*
X6553Y5038D01*
X6546Y5022D01*
X6544Y5005D01*
Y4907D01*
X6546Y4890D01*
X6553Y4873D01*
X6564Y4860D01*
X6578Y4849D01*
X6594Y4842D01*
X6611Y4840D01*
X6709D01*
X6726Y4842D01*
X6743Y4849D01*
X6757Y4860D01*
X6767Y4873D01*
X6774Y4890D01*
X6776Y4907D01*
Y5005D01*
X6774Y5022D01*
X6767Y5038D01*
X6757Y5052D01*
X6743Y5063D01*
X6726Y5070D01*
X6709Y5072D01*
D02*
G37*
G36*
X6675Y4721D02*
X6645D01*
X6616Y4714D01*
X6589Y4698D01*
X6568Y4677D01*
X6553Y4650D01*
X6545Y4621D01*
Y4591D01*
X6553Y4561D01*
X6568Y4535D01*
X6589Y4513D01*
X6616Y4498D01*
X6645Y4490D01*
X6675D01*
X6705Y4498D01*
X6731Y4513D01*
X6753Y4535D01*
X6768Y4561D01*
X6776Y4591D01*
Y4621D01*
X6768Y4650D01*
X6753Y4677D01*
X6731Y4698D01*
X6705Y4714D01*
X6675Y4721D01*
D02*
G37*
G36*
X6676Y4379D02*
X6673D01*
Y4269D01*
X6783D01*
Y4272D01*
X6775Y4303D01*
X6759Y4331D01*
X6736Y4354D01*
X6708Y4370D01*
X6676Y4379D01*
D02*
G37*
G36*
X6647D02*
X6644D01*
X6613Y4370D01*
X6585Y4354D01*
X6562Y4331D01*
X6546Y4303D01*
X6537Y4272D01*
Y4269D01*
X6647D01*
Y4379D01*
D02*
G37*
G36*
X6783Y4243D02*
X6673D01*
Y4133D01*
X6676D01*
X6708Y4141D01*
X6736Y4158D01*
X6759Y4180D01*
X6775Y4208D01*
X6783Y4240D01*
Y4243D01*
D02*
G37*
G36*
X6647D02*
X6537D01*
Y4240D01*
X6546Y4208D01*
X6562Y4180D01*
X6585Y4158D01*
X6613Y4141D01*
X6644Y4133D01*
X6647D01*
Y4243D01*
D02*
G37*
%LPD*%
D11*
X885Y3353D02*
X928D01*
X874Y3343D02*
X885Y3353D01*
X1119Y4699D02*
X1150Y4668D01*
X1108Y4699D02*
X1119D01*
D15*
X1144Y3754D02*
X1145D01*
X1148Y3757D01*
X404D02*
X1148D01*
X397Y3750D02*
X404Y3757D01*
D59*
X1636Y3950D02*
X2047D01*
D60*
X1150Y4668D02*
X2737D01*
D63*
X1039Y3353D02*
X1636Y3950D01*
X928Y3353D02*
X1039D01*
D65*
X200Y200D02*
D03*
X450Y5675D02*
D03*
X6975Y375D02*
D03*
X7075Y5700D02*
D03*
D66*
X3645Y525D02*
D03*
Y875D02*
D03*
X6660Y4256D02*
D03*
Y4606D02*
D03*
Y906D02*
D03*
Y1256D02*
D03*
Y2926D02*
D03*
Y2576D02*
D03*
X2737Y4668D02*
D03*
D67*
X3645Y1225D02*
D03*
X6660Y4956D02*
D03*
Y1606D02*
D03*
Y3276D02*
D03*
X2737Y5018D02*
D03*
D68*
X4082Y1925D02*
D03*
Y2179D02*
D03*
Y2687D02*
D03*
Y3188D02*
D03*
Y3696D02*
D03*
Y3950D02*
D03*
X2047Y1925D02*
D03*
Y2306D02*
D03*
Y3569D02*
D03*
D69*
Y3950D02*
D03*
D70*
X1144Y3754D02*
D03*
X1108Y4699D02*
D03*
X874Y3343D02*
D03*
X397Y3750D02*
D03*
M02*
