G04*
G04 #@! TF.GenerationSoftware,Altium Limited,Altium Designer,23.1.1 (15)*
G04*
G04 Layer_Color=16711935*
%FSLAX42Y42*%
%MOMM*%
G71*
G04*
G04 #@! TF.SameCoordinates,F7E502E2-2775-4CE4-A648-0EBC044B2D6D*
G04*
G04*
G04 #@! TF.FilePolarity,Positive*
G04*
G01*
G75*
%ADD63C,1.00*%
D63*
X7330Y5901D02*
G03*
X7280Y5951I-50J0D01*
G01*
X7330Y5901D02*
G03*
X7280Y5951I-50J0D01*
G01*
X7315Y349D02*
G03*
X7330Y384I-35J35D01*
G01*
X7316Y349D02*
G03*
X7330Y384I-35J35D01*
G01*
X6897Y-49D02*
G03*
X6932Y-34I0J50D01*
G01*
X6897Y-49D02*
G03*
X6932Y-34I0J50D01*
G01*
X427Y5951D02*
G03*
X392Y5936I0J-50D01*
G01*
X427Y5951D02*
G03*
X392Y5936I0J-50D01*
G01*
X-36Y5508D02*
G03*
X-51Y5473I35J-35D01*
G01*
Y1D02*
G03*
X-1Y-49I50J0D01*
G01*
X-36Y5508D02*
G03*
X-51Y5473I35J-35D01*
G01*
Y1D02*
G03*
X-1Y-49I50J0D01*
G01*
X7330Y384D02*
Y5901D01*
X7315Y349D02*
X7316Y349D01*
X6932Y-34D02*
X7315Y349D01*
X6932Y-34D02*
X6932Y-34D01*
X427Y5951D02*
X7280D01*
X392Y5936D02*
X392Y5936D01*
X-36Y5508D02*
X392Y5936D01*
X-36Y5508D02*
X-36Y5508D01*
X-1Y-49D02*
X6897D01*
X-51Y1D02*
Y5473D01*
M02*
