G04*
G04 #@! TF.GenerationSoftware,Altium Limited,Altium Designer,23.1.1 (15)*
G04*
G04 Layer_Color=128*
%FSLAX42Y42*%
%MOMM*%
G71*
G04*
G04 #@! TF.SameCoordinates,F7E502E2-2775-4CE4-A648-0EBC044B2D6D*
G04*
G04*
G04 #@! TF.FilePolarity,Positive*
G04*
G01*
G75*
%ADD13C,0.13*%
D13*
X50Y200D02*
X350D01*
X200Y50D02*
Y350D01*
X300Y5675D02*
X600D01*
X450Y5525D02*
Y5825D01*
X6825Y375D02*
X7125D01*
X6975Y225D02*
Y525D01*
X6925Y5700D02*
X7225D01*
X7075Y5550D02*
Y5850D01*
X3580Y525D02*
X3710D01*
X3645Y460D02*
Y590D01*
X3580Y1225D02*
X3710D01*
X3645Y1160D02*
Y1290D01*
X3580Y875D02*
X3710D01*
X3645Y810D02*
Y940D01*
X4017Y1925D02*
X4147D01*
X4082Y1861D02*
Y1990D01*
X4017Y2179D02*
X4147D01*
X4082Y2115D02*
Y2244D01*
X4017Y2687D02*
X4147D01*
X4082Y2623D02*
Y2752D01*
X4017Y3188D02*
X4147D01*
X4082Y3123D02*
Y3252D01*
X4017Y3696D02*
X4147D01*
X4082Y3631D02*
Y3760D01*
X4017Y3950D02*
X4147D01*
X4082Y3885D02*
Y4014D01*
X1983Y1925D02*
X2112D01*
X2047Y1861D02*
Y1990D01*
X1983Y2306D02*
X2112D01*
X2047Y2242D02*
Y2371D01*
X1983Y3569D02*
X2112D01*
X2047Y3504D02*
Y3633D01*
X1983Y3950D02*
X2112D01*
X2047Y3885D02*
Y4014D01*
X6595Y4256D02*
X6725D01*
X6660Y4191D02*
Y4321D01*
X6595Y4956D02*
X6725D01*
X6660Y4891D02*
Y5021D01*
X6595Y4606D02*
X6725D01*
X6660Y4541D02*
Y4671D01*
X6595Y906D02*
X6725D01*
X6660Y841D02*
Y971D01*
X6595Y1606D02*
X6725D01*
X6660Y1541D02*
Y1671D01*
X6595Y1256D02*
X6725D01*
X6660Y1191D02*
Y1321D01*
X6595Y2926D02*
X6725D01*
X6660Y2861D02*
Y2991D01*
X6595Y3276D02*
X6725D01*
X6660Y3211D02*
Y3341D01*
X6595Y2576D02*
X6725D01*
X6660Y2511D02*
Y2641D01*
X2672Y5018D02*
X2802D01*
X2737Y4953D02*
Y5083D01*
X2672Y4668D02*
X2802D01*
X2737Y4603D02*
Y4733D01*
X1119Y3754D02*
X1169D01*
X1144Y3729D02*
Y3779D01*
X1082Y4699D02*
X1133D01*
X1108Y4674D02*
Y4724D01*
X849Y3343D02*
X899D01*
X874Y3317D02*
Y3368D01*
X372Y3750D02*
X423D01*
X397Y3725D02*
Y3776D01*
M02*
