G04*
G04 #@! TF.GenerationSoftware,Altium Limited,Altium Designer,23.1.1 (15)*
G04*
G04 Layer_Color=255*
%FSLAX42Y42*%
%MOMM*%
G71*
G04*
G04 #@! TF.SameCoordinates,F7E502E2-2775-4CE4-A648-0EBC044B2D6D*
G04*
G04*
G04 #@! TF.FilePolarity,Positive*
G04*
G01*
G75*
%ADD20R,0.70X0.70*%
%ADD21R,1.00X1.10*%
%ADD22R,0.85X0.85*%
%ADD23R,2.71X1.90*%
%ADD24R,1.50X1.05*%
%ADD25R,1.50X2.40*%
%ADD26R,0.90X0.85*%
%ADD27R,2.05X1.10*%
%ADD28R,1.55X1.35*%
G04:AMPARAMS|DCode=29|XSize=0.91mm|YSize=0.24mm|CornerRadius=0.12mm|HoleSize=0mm|Usage=FLASHONLY|Rotation=270.000|XOffset=0mm|YOffset=0mm|HoleType=Round|Shape=RoundedRectangle|*
%AMROUNDEDRECTD29*
21,1,0.91,0.00,0,0,270.0*
21,1,0.67,0.24,0,0,270.0*
1,1,0.24,0.00,-0.33*
1,1,0.24,0.00,0.33*
1,1,0.24,0.00,0.33*
1,1,0.24,0.00,-0.33*
%
%ADD29ROUNDEDRECTD29*%
%ADD30R,0.24X0.91*%
%ADD31R,1.10X2.05*%
%ADD32R,1.10X0.90*%
%ADD33R,0.70X0.70*%
%ADD34R,0.85X0.90*%
%ADD35R,0.56X0.69*%
%ADD36R,1.90X2.71*%
%ADD37R,1.10X1.00*%
%ADD38R,0.80X0.95*%
%ADD39R,0.90X1.00*%
%ADD40R,0.90X0.70*%
%ADD41R,0.70X0.85*%
%ADD45R,3.10X2.70*%
%ADD65C,1.52*%
%ADD66C,1.95*%
G04:AMPARAMS|DCode=67|XSize=1.95mm|YSize=1.95mm|CornerRadius=0.49mm|HoleSize=0mm|Usage=FLASHONLY|Rotation=270.000|XOffset=0mm|YOffset=0mm|HoleType=Round|Shape=RoundedRectangle|*
%AMROUNDEDRECTD67*
21,1,1.95,0.98,0,0,270.0*
21,1,0.98,1.95,0,0,270.0*
1,1,0.98,-0.49,-0.49*
1,1,0.98,-0.49,0.49*
1,1,0.98,0.49,0.49*
1,1,0.98,0.49,-0.49*
%
%ADD67ROUNDEDRECTD67*%
%ADD68C,1.94*%
%ADD69R,1.94X1.94*%
D20*
X1267Y3573D02*
D03*
X1407D02*
D03*
X807Y3103D02*
D03*
X947D02*
D03*
X796Y4272D02*
D03*
X656D02*
D03*
D21*
X1217Y3343D02*
D03*
X1357D02*
D03*
D22*
X5130Y1721D02*
D03*
Y1386D02*
D03*
X1625Y1348D02*
D03*
Y1013D02*
D03*
X5130Y5038D02*
D03*
Y4703D02*
D03*
Y3373D02*
D03*
Y3038D02*
D03*
D23*
X5530Y1646D02*
D03*
Y1416D02*
D03*
Y906D02*
D03*
Y1136D02*
D03*
X2017Y759D02*
D03*
Y529D02*
D03*
X2015Y1041D02*
D03*
Y1271D02*
D03*
X2502Y760D02*
D03*
Y530D02*
D03*
X2502Y1041D02*
D03*
Y1271D02*
D03*
X5530Y3066D02*
D03*
Y3296D02*
D03*
Y2556D02*
D03*
Y2786D02*
D03*
Y4731D02*
D03*
Y4961D02*
D03*
Y4221D02*
D03*
Y4451D02*
D03*
D24*
X4780Y1703D02*
D03*
X1275Y1333D02*
D03*
X4780Y3356D02*
D03*
Y5021D02*
D03*
D25*
Y1466D02*
D03*
X1275Y1096D02*
D03*
X4780Y3118D02*
D03*
Y4783D02*
D03*
D26*
X5930Y1630D02*
D03*
Y1500D02*
D03*
Y1035D02*
D03*
Y905D02*
D03*
X2905Y660D02*
D03*
Y530D02*
D03*
X2915Y1266D02*
D03*
Y1136D02*
D03*
X5930Y3167D02*
D03*
Y3297D02*
D03*
Y2575D02*
D03*
Y2705D02*
D03*
Y4832D02*
D03*
Y4962D02*
D03*
Y4220D02*
D03*
Y4350D02*
D03*
D27*
X4780Y851D02*
D03*
Y1181D02*
D03*
X1275Y476D02*
D03*
Y806D02*
D03*
X4780Y2501D02*
D03*
Y2831D02*
D03*
Y4491D02*
D03*
Y4161D02*
D03*
D28*
X5130Y1093D02*
D03*
Y898D02*
D03*
X1625Y521D02*
D03*
Y716D02*
D03*
X5130Y4211D02*
D03*
Y4406D02*
D03*
Y2546D02*
D03*
Y2741D02*
D03*
D29*
X1394Y3887D02*
D03*
X1344D02*
D03*
X1294D02*
D03*
X1244D02*
D03*
X1194D02*
D03*
X1144D02*
D03*
Y4267D02*
D03*
X1194D02*
D03*
X1244D02*
D03*
X1294D02*
D03*
X1344D02*
D03*
D30*
X1394D02*
D03*
D31*
X1492Y5083D02*
D03*
X1162D02*
D03*
D32*
X907Y4983D02*
D03*
Y5133D02*
D03*
D33*
X657Y3917D02*
D03*
Y4057D02*
D03*
D34*
X1452Y4783D02*
D03*
X1322D02*
D03*
D35*
X755Y3343D02*
D03*
X999D02*
D03*
D36*
X2033Y4643D02*
D03*
X1802D02*
D03*
Y5083D02*
D03*
X2033D02*
D03*
D37*
X396Y3905D02*
D03*
Y4045D02*
D03*
D38*
X752Y3543D02*
D03*
X617D02*
D03*
D39*
X1147Y3103D02*
D03*
X1277D02*
D03*
D40*
X687Y4643D02*
D03*
Y4783D02*
D03*
D41*
X1075Y4783D02*
D03*
X960D02*
D03*
D45*
X1269Y4077D02*
D03*
D65*
X200Y200D02*
D03*
X450Y5675D02*
D03*
X6975Y375D02*
D03*
X7075Y5700D02*
D03*
D66*
X3645Y525D02*
D03*
Y875D02*
D03*
X6660Y4256D02*
D03*
Y4606D02*
D03*
Y906D02*
D03*
Y1256D02*
D03*
Y2926D02*
D03*
Y2576D02*
D03*
X2737Y4668D02*
D03*
D67*
X3645Y1225D02*
D03*
X6660Y4956D02*
D03*
Y1606D02*
D03*
Y3276D02*
D03*
X2737Y5018D02*
D03*
D68*
X4082Y1925D02*
D03*
Y2179D02*
D03*
Y2687D02*
D03*
Y3188D02*
D03*
Y3696D02*
D03*
Y3950D02*
D03*
X2047Y1925D02*
D03*
Y2306D02*
D03*
Y3569D02*
D03*
D69*
Y3950D02*
D03*
M02*
