M48
;Layer_Color=9474304
;FILE_FORMAT=4:3
METRIC,LZ
;TYPE=PLATED
T1F00S00C0.506
T2F00S00C1.295
T3F00S00C1.300
T4F00S00C3.000
%
T01
X0003975Y0037503
X0011439Y0037541
X0008741Y0033427
X0011076Y0046989
T02
X004082Y0019253
Y0021793
Y0026873
X0020475Y0023063
Y0019253
Y0035687
Y0039497
X004082
Y0036957
Y0031877
T03
X0066602Y0009059
Y0012559
Y0016059
Y0025759
X003645Y001225
Y000875
Y000525
X0027375Y0046677
Y0050177
X0066602Y0049559
Y0046059
Y0042559
Y0032759
Y0029259
T04
X006975Y000375
X0002Y0002
X00045Y005675
X007075Y0057
M30
